<svg class="mr-3 h-6 sm:h-9" width="171.95mm" height="65.708mm" version="1.1" viewBox="0 0 171.95 65.708" xml:space="preserve" xmlns="http://www.w3.org/2000/svg"><g transform="translate(5.2298 -230.24)"><g><path d="m35.345 295.57c-2.939-1.5888-3.3603-5.2593-0.82359-7.1763 0.65092-0.49191 0.65092-0.49191 0.144-3.4023-0.66513-3.8187-0.71171-3.5719 0.67396-3.5719 1.0137 0 1.2048 0.0863 1.3185 0.59531 0.17227 0.77177 0.93359 5.2974 0.93469 5.5562 4.65e-4 0.10914 0.19515 0.19844 0.43264 0.19844 1.3467 0 3.2812 2.3607 3.2666 3.9861-0.02585 2.865-3.5369 5.117-5.9467 3.8143zm3.1042-2.8791c0.99642-1.4923-1.0666-3.2793-2.5411-2.2012-0.54388 0.3977-0.65666 1.849-0.1876 2.4142 0.60927 0.73413 2.1781 0.61167 2.7287-0.21299zm-31.23 2.6987c-0.40812-0.40812-0.40812-1.3381 0-1.7462 0.69433-0.69434 2.3283-0.0816 2.3283 0.87312 0 0.95471-1.634 1.5675-2.3283 0.87313zm-4.517-1.9436c-6.5662-5.5251 1.2681-16.322 9.0003-12.404 1.5434 0.78209 1.0945 1.0046 4.8034-2.3806l2.5928-2.3664 1.773 1.8171-3.0314 2.7463c-2.255 2.0429-2.9845 2.8561-2.8483 3.175 1.5201 3.5598 1.0929 6.8202-1.209 9.2261-0.89433 0.93476-1.0998 0.99908-1.8716 0.586-0.73816-0.39505-0.6301-1.3565 0.28137-2.5035 2.7714-3.4874 0.76159-8.276-3.5898-8.553-4.81-0.30627-7.4184 4.6839-4.4685 8.5485 1.0438 1.3674 1.1104 1.7295 0.43133 2.344-0.6512 0.58934-0.92408 0.55482-1.8636-0.23572zm9.1396-35.865-4.7173-2.3791-0.9968 0.90054c-4.5561 4.1162-11.881 0.48273-11.328-5.6189 0.78649-8.6735 13.557-8.1655 13.557 0.53929v2.0148l4.4979 2.2785c5.7792 2.9275 5.3033 2.5458 4.6194 3.705-0.70683 1.198-0.08806 1.3562-5.6325-1.4401zm-8.8606-2.401c2.795-0.8374 3.898-4.5799 2.0443-6.9365-1.6208-2.0605-5.2104-2.0598-6.8317 1e-3 -2.7343 3.4761 0.53338 8.2098 4.7874 6.9352zm36.403-3.9673c0.22838-0.22838 0.46626-0.23305 0.91281-0.0179 0.56718 0.27325 0.54838 0.29205-0.30887 0.30887-0.69579 0.0137-0.83938-0.0555-0.60394-0.29096zm1.5339-2.0534c-0.82269-0.90906 0.07869-2.335 1.2847-2.0323 0.84993 0.21332 1.106 1.07 0.56608 1.894-0.5106 0.77927-1.2225 0.83247-1.8508 0.1383zm2.2979-3.7459c-0.805-0.30397-0.76991-1.197 0.11818-3.0078 0.71349-1.4548 0.71349-1.4548 0.14522-2.0597-4.974-5.2946 2.4263-13.32 8.0703-8.7519 4.4489 3.6008 1.3772 11.338-4.204 10.59-1.0376-0.13917-1.0376-0.13917-1.8218 1.4143-0.8701 1.7237-1.4152 2.1524-2.308 1.8152zm6.6503-6.3506c3.2522-2.5582 0.49038-7.5447-3.3666-6.0783-2.4863 0.9453-2.8576 4.7509-0.59792 6.1289 1.1327 0.69072 3.0532 0.66621 3.9645-0.0506z" fill="#141954"/><path d="m27.299 271.47c-1.8246-0.38585-1.7198-0.28527-1.7198-1.6497v-1.2837l1.2568 0.23597c2.4453 0.45911 5.0261 0.40541 5.5468-0.11542 0.65645-0.65661 0.19605-0.89415-2.153-1.1108-3.4929-0.32216-4.6506-1.0928-4.6506-3.0956 0-2.4322 1.4456-3.3927 5.0986-3.3878 3.9199 5e-3 4.1618 0.10108 4.1618 1.6486 0 1.3177 0 1.3177-0.8599 1.1652-3.5352-0.627-5.4901-0.50526-5.4901 0.34188 0 0.5914 0.50226 0.81007 1.8607 0.81007 3.3567 0 5.0185 1.0907 5.0185 3.2939 0 2.646-3.6708 4.0777-8.0698 3.1474zm28.251-0.067c-2.1452-0.55133-3.2331-2.2027-3.2405-4.919-0.01096-4.0124 1.4994-5.4272 5.7869-5.421 3.7299 5e-3 3.9954 0.1138 3.9954 1.6312v1.3003l-0.99219-0.21043c-4.0217-0.85293-5.887-0.10468-5.887 2.3615 0 3.0046 1.1518 3.5169 6.0193 2.6769 1.0248-0.17684 1.3843 2.0199 0.39688 2.4252-0.70742 0.29042-5.115 0.40307-6.0788 0.15537zm33.181-0.143c-2.6663-0.95093-3.8837-4.8702-2.4479-7.8807 1.4351-3.009 8.673-3.2742 10.431-0.38227 3.1189 5.1296-1.9779 10.405-7.9835 8.263zm4.1306-2.2589c2.1523-0.0164 2.5103-4.5377 0.41709-5.2674-1.6544-0.57674-3.9598-0.17632-4.4696 0.77636-1.2158 2.2717 0.65014 5.0887 3.0483 4.6021 0.29104-0.0591 0.74294-0.109 1.0042-0.11099zm24.925 2.5107c-0.14552-0.0494-0.71107-0.16442-1.2568-0.25569-0.96647-0.16164-0.99219-0.19535-0.99219-1.3005 0-1.4386 0.0314-1.4628 1.5297-1.1815 2.1351 0.4009 4.9558 0.39519 5.4453-0.011 0.73436-0.60947 0.0459-1.022-2.0251-1.2133-3.6101-0.33351-4.6853-1.0761-4.6853-3.2357 0-2.3666 1.3541-3.2408 5.0271-3.2455 3.9771-5e-3 4.2333 0.0931 4.2333 1.6225v1.2974l-1.3891-0.20755c-2.1652-0.32352-4.6244-0.25437-5.0142 0.14099-0.57199 0.58019 0.36018 1.0135 2.5341 1.1779 3.9754 0.30066 5.8649 3.0008 3.6498 5.2158-1.0865 1.0865-5.2827 1.7977-7.0568 1.196zm42.274-0.10882c-2.3775-0.61103-3.3785-2.3794-3.1901-5.6352 0.19875-3.4333 1.7242-4.7102 5.6208-4.7049 3.8554 5e-3 4.1111 0.10673 4.1111 1.6312v1.3003l-0.99218-0.21043c-4.0217-0.85293-5.887-0.10468-5.887 2.3615 0 3.0046 1.1518 3.5169 6.0193 2.6769 1.0248-0.17684 1.3843 2.0199 0.39687 2.4252-0.70741 0.29042-5.115 0.40307-6.0788 0.15537zm-120.72-5.0514v-5.0271h9.525v2.3812h-3.4396c-3.4396 0-3.4396 0-3.4396 0.66146s0 0.66146 2.6458 0.66146h2.6458v2.6458h-2.6458c-2.4694 0-2.6458 0.0353-2.6458 0.52917 0 0.50203 0.17639 0.52916 3.4396 0.52916h3.4396v2.6458h-9.525zm29.898 1.1906v-3.8365h-3.9688v-2.3812h10.583v2.3581l-3.8365 0.1554-0.07341 3.7703-0.07341 3.7703h-2.6313zm10.054-1.1906v-5.0271h2.6458v10.054h-2.6458zm21.96 0v-5.0271h2.8703l4.935 6.117 0.0745-3.0585 0.0745-3.0585h2.629v10.082l-1.3768-0.08c-1.3768-0.08-1.3768-0.08-3.7703-3.0388-2.9376-3.6313-2.7904-3.6339-2.7904 0.0484v3.0427h-2.6458zm31.397 4.8507c-0.097-0.097-0.17639-0.97047-0.17639-1.941 0-1.7517-0.0136-1.7844-1.8521-4.46-2.2838-3.3238-2.3013-3.4767-0.39687-3.4767 0.80036 0 1.4583 0.0893 1.4621 0.19844 4e-3 0.10914 0.52245 1.0098 1.1526 2.0015l1.1457 1.803 1.2475-2.0015c1.2475-2.0015 1.2475-2.0015 2.6839-2.0015 1.8242 0 1.8259-0.0108-0.54796 3.4226-1.9844 2.87-1.9844 2.87-1.9844 4.7508v1.8808h-1.2788c-0.70335 0-1.3582-0.0794-1.4552-0.17639zm9.8778-4.8507v-5.0271l1.3891 0.0126c1.3891 0.0126 1.3891 0.0126 3.7703 2.9558l2.3812 2.9432 0.1496-5.9116h2.8931v10.054h-2.8279l-4.9773-6.1776-0.0746 3.0888-0.0745 3.0888h-2.629z"/></g></g></svg>