<?xml version="1.0" encoding="UTF-8"?>
<!-- Created with Inkscape (http://www.inkscape.org/) -->
<svg width="135.47mm" height="135.47mm" version="1.1" viewBox="0 0 135.47 135.47" xml:space="preserve" xmlns="http://www.w3.org/2000/svg"><g transform="translate(-358.05 41.455)"><g transform="matrix(1.6068 0 0 1.6068 43.412 -489.61)"><rect x="195.99" y="279.08" width="83.957" height="83.957" ry="41.979" stroke="#fff" stroke-linecap="square" stroke-width=".35035" style="paint-order:stroke fill markers"/><g transform="matrix(1.3678 0 0 1.3678 -61.418 -238.61)"><g transform="translate(-1.6284 -3.2569)" stroke-width=".31117"><path d="m208.23 429.25c-6.6896-1.4146-6.3054-1.0459-6.3054-6.0484v-4.7065l4.6079 0.86514c8.9653 1.6833 18.427 1.4864 20.336-0.42317 2.4068-2.4074 0.71877-3.2782-7.8936-4.0726-12.806-1.1812-17.051-4.0066-17.051-11.35 0-8.9173 5.3001-12.439 18.693-12.421 14.372 0.0182 15.259 0.3706 15.259 6.0443 0 4.8311 0 4.8311-3.1527 4.272-12.961-2.2988-20.129-1.8525-20.129 1.2534 0 2.1683 1.8415 2.97 6.822 2.97 12.307 0 18.4 3.9989 18.4 12.077 0 9.7011-13.458 14.95-29.587 11.539z" stroke="#fff"/><path d="m209.87 432.03c-6.6896-1.4146-6.3054-1.0459-6.3054-6.0484v-4.7065l4.6079 0.86514c8.9653 1.6833 18.427 1.4864 20.336-0.42317 2.4068-2.4074 0.71877-3.2782-7.8936-4.0726-12.806-1.1812-17.051-4.0066-17.051-11.35 0-8.9173 5.3001-12.439 18.693-12.421 14.372 0.0182 15.259 0.3706 15.259 6.0443 0 4.8311 0 4.8311-3.1527 4.272-12.961-2.2988-20.129-1.8525-20.129 1.2534 0 2.1683 1.8415 2.97 6.822 2.97 12.307 0 18.4 3.9989 18.4 12.077 0 9.7011-13.458 14.95-29.587 11.539z" fill="#fff" stroke="#000"/></g></g></g></g></svg>
